<svg width="50" height="50" viewBox="0 0 50 50" fill="none" xmlns="http://www.w3.org/2000/svg">
<mask id="mask0_759_122" style="mask-type:alpha" maskUnits="userSpaceOnUse" x="0" y="0" width="50" height="50">
<rect width="50" height="50" fill="#D9D9D9"/>
</mask>
<g mask="url(#mask0_759_122)">
<path d="M21.25 27.5017L19.0625 25.3142C19.3403 24.9323 19.5313 24.5416 19.6354 24.1423C19.7396 23.743 19.7917 23.335 19.7917 22.9184C19.7917 22.5017 19.7396 22.0937 19.6354 21.6944C19.5313 21.2951 19.3403 20.9218 19.0625 20.5746L21.25 18.335C21.8056 18.9948 22.2222 19.7239 22.5 20.5225C22.7778 21.3212 22.9167 22.1198 22.9167 22.9184C22.9167 23.717 22.7778 24.5069 22.5 25.2882C22.2222 26.0694 21.8056 26.8073 21.25 27.5017ZM25.6771 31.9809L23.4375 29.7413C24.3056 28.7691 24.9566 27.6927 25.3906 26.5121C25.8247 25.3316 26.0417 24.1337 26.0417 22.9184C26.0417 21.7031 25.8247 20.5139 25.3906 19.3507C24.9566 18.1875 24.3056 17.1198 23.4375 16.1475L25.6771 13.908C26.8576 15.1927 27.7344 16.6076 28.3073 18.1528C28.8802 19.6979 29.1667 21.2864 29.1667 22.9184C29.1667 24.5503 28.8802 26.1475 28.3073 27.71C27.7344 29.2725 26.8576 30.6962 25.6771 31.9809ZM10.4167 25.0017C9.27084 25.0017 8.28994 24.5937 7.47397 23.7778C6.658 22.9618 6.25001 21.9809 6.25001 20.835C6.25001 19.6892 6.658 18.7083 7.47397 17.8923C8.28994 17.0764 9.27084 16.6684 10.4167 16.6684C11.5625 16.6684 12.5434 17.0764 13.3594 17.8923C14.1754 18.7083 14.5833 19.6892 14.5833 20.835C14.5833 21.9809 14.1754 22.9618 13.3594 23.7778C12.5434 24.5937 11.5625 25.0017 10.4167 25.0017ZM2.08334 33.335V32.1371C2.08334 31.3038 2.30904 30.5399 2.76043 29.8455C3.21182 29.151 3.83682 28.6302 4.63543 28.283C5.5382 27.901 6.46702 27.6059 7.42188 27.3975C8.37675 27.1892 9.37501 27.085 10.4167 27.085C11.4583 27.085 12.4566 27.1892 13.4115 27.3975C14.3663 27.6059 15.2951 27.901 16.1979 28.283C16.9965 28.6302 17.6215 29.151 18.0729 29.8455C18.5243 30.5399 18.75 31.3038 18.75 32.1371V33.335H2.08334ZM39.5833 25.0017C38.4375 25.0017 37.4566 24.5937 36.6406 23.7778C35.8247 22.9618 35.4167 21.9809 35.4167 20.835C35.4167 19.6892 35.8247 18.7083 36.6406 17.8923C37.4566 17.0764 38.4375 16.6684 39.5833 16.6684C40.7292 16.6684 41.7101 17.0764 42.5261 17.8923C43.342 18.7083 43.75 19.6892 43.75 20.835C43.75 21.9809 43.342 22.9618 42.5261 23.7778C41.7101 24.5937 40.7292 25.0017 39.5833 25.0017ZM31.25 33.335V32.1371C31.25 31.3038 31.4757 30.5399 31.9271 29.8455C32.3785 29.151 33.0035 28.6302 33.8021 28.283C34.7049 27.901 35.6337 27.6059 36.5886 27.3975C37.5434 27.1892 38.5417 27.085 39.5833 27.085C40.625 27.085 41.6233 27.1892 42.5781 27.3975C43.533 27.6059 44.4618 27.901 45.3646 28.283C46.1632 28.6302 46.7882 29.151 47.2396 29.8455C47.691 30.5399 47.9167 31.3038 47.9167 32.1371V33.335H31.25Z" fill="#FFA322"/>
</g>
</svg>
