<svg width="51" height="51" viewBox="0 0 51 51" fill="none" xmlns="http://www.w3.org/2000/svg">
<mask id="mask0_758_122" style="mask-type:alpha" maskUnits="userSpaceOnUse" x="0" y="0" width="51" height="51">
<rect x="0.363556" y="0.645264" width="50" height="50" fill="#D9D9D9"/>
</mask>
<g mask="url(#mask0_758_122)">
<path d="M12.8635 29.812H19.2177L29.6344 19.3953C29.9469 19.0828 30.1813 18.7269 30.3375 18.3276C30.4938 17.9283 30.5719 17.5377 30.5719 17.1558C30.5719 16.7738 30.4851 16.4006 30.3115 16.036C30.1379 15.6714 29.9122 15.3328 29.6344 15.0203L27.7594 13.0412C27.4469 12.7287 27.0997 12.4943 26.7177 12.3381C26.3358 12.1818 25.9365 12.1037 25.5198 12.1037C25.1379 12.1037 24.7472 12.1818 24.3479 12.3381C23.9486 12.4943 23.5927 12.7287 23.2802 13.0412L12.8635 23.4578V29.812ZM15.9885 26.687V24.7078L21.249 19.4474L22.2906 20.3849L23.2281 21.4266L17.9677 26.687H15.9885ZM22.2906 20.3849L23.2281 21.4266L21.249 19.4474L22.2906 20.3849ZM23.6448 29.812H37.8635V25.6453H27.8115L23.6448 29.812ZM4.53021 46.4787V8.97868C4.53021 7.83285 4.9382 6.85194 5.75417 6.03597C6.57014 5.22 7.55105 4.81201 8.69688 4.81201H42.0302C43.176 4.81201 44.157 5.22 44.9729 6.03597C45.7889 6.85194 46.1969 7.83285 46.1969 8.97868V33.9787C46.1969 35.1245 45.7889 36.1054 44.9729 36.9214C44.157 37.7374 43.176 38.1453 42.0302 38.1453H12.8635L4.53021 46.4787ZM11.0927 33.9787H42.0302V8.97868H8.69688V36.3224L11.0927 33.9787Z" fill="#FFA322"/>
</g>
</svg>
